<svg width="79" height="43" viewBox="0 0 79 43" fill="none" xmlns="http://www.w3.org/2000/svg">
<g clip-path="url(#clip0_4076_8069)">
<path d="M66.7231 32.8611L60.2325 12.8621C60.1974 12.7727 60.1845 12.6759 60.1949 12.5802C60.2055 12.4844 60.2391 12.3929 60.2929 12.3137C60.3465 12.2345 60.4187 12.1701 60.5028 12.1263C60.5869 12.0825 60.6804 12.0606 60.7748 12.0626H62.946C63.7688 12.0626 64.5175 12.4496 64.8293 13.785L68.6002 25.4963C68.6409 25.6043 68.7122 25.6976 68.805 25.7642C68.8978 25.8309 69.0081 25.8679 69.1216 25.8705C69.5481 25.8811 69.7077 25.4771 69.7858 25.2772L74.2648 13.5979C74.6017 12.4602 75.3076 12.0679 76.0971 12.0679H78.4153C78.5092 12.0663 78.6022 12.088 78.686 12.1314C78.7698 12.1749 78.8419 12.2385 78.8959 12.3168C78.9501 12.3951 78.9845 12.4858 78.9964 12.5808C79.0081 12.6759 78.997 12.7725 78.9638 12.8621L67.4124 42.2301C67.3736 42.3439 67.3019 42.4429 67.2069 42.5144C67.1117 42.5857 66.9975 42.626 66.8795 42.6299L63.7041 42.6214C63.6087 42.622 63.5146 42.5983 63.4304 42.5525C63.3462 42.5067 63.2745 42.4401 63.2219 42.3589C63.1693 42.2778 63.1374 42.1844 63.1291 42.0875C63.1208 41.9905 63.1364 41.8931 63.1744 41.8037L66.7199 33.2981C66.7743 33.1579 66.7755 33.0021 66.7231 32.8611Z" fill="white"/>
<path d="M41.6533 30.2541C42.247 29.5255 46.5414 24.271 46.5414 24.271L52.4052 17.0953C52.4709 17.0143 52.879 16.4553 52.879 16.4553C52.9016 16.4342 52.9175 16.4065 52.9244 16.3759C52.9312 16.3453 52.9288 16.3133 52.9175 16.2841C52.9062 16.255 52.8864 16.23 52.8609 16.2126C52.8354 16.1951 52.8053 16.1861 52.7746 16.1866H43.1925C42.0143 16.1866 41.3809 15.2521 41.3809 14.4254V12.6334C41.3857 12.4777 41.4508 12.3303 41.5616 12.2233C41.6725 12.1165 41.8202 12.0587 41.9726 12.0627H58.0468C58.3672 12.0627 58.6228 12.2963 58.6228 12.6899V15.8334C58.6228 16.0778 58.6155 16.2698 58.4266 16.5023C56.3645 19.025 53.9225 22.0022 51.8166 24.5899L48.6003 28.526C48.6003 28.526 47.012 30.4675 46.9191 30.5794C46.7887 30.7373 46.8951 30.8749 47.0089 30.8749L56.879 30.8418C57.4133 30.8418 58.6228 31.245 58.6228 32.7085V34.3843C58.6259 34.5408 58.5682 34.6922 58.4624 34.8053C58.3566 34.9185 58.2113 34.9842 58.0582 34.9881H42.0279C41.9509 34.9878 41.8748 34.9718 41.804 34.941C41.7332 34.9101 41.6693 34.865 41.6158 34.8085C41.5624 34.7518 41.5207 34.6848 41.493 34.6115C41.4654 34.5381 41.4525 34.4597 41.455 34.3811V30.8941C41.4569 30.6653 41.5259 30.4423 41.6533 30.2541Z" fill="white"/>
<path d="M33.486 34.4527C33.8483 34.2917 34.6068 33.8021 35.0187 33.544L35.0293 33.5377C35.0528 33.5242 35.0793 33.5173 35.1063 33.5176C35.1332 33.518 35.1595 33.5255 35.1827 33.5396C35.2057 33.5535 35.2247 33.5735 35.2377 33.5973C35.2507 33.6211 35.2571 33.648 35.2565 33.6752V34.4016C35.2578 34.5561 35.3186 34.7041 35.4261 34.8141C35.5335 34.9242 35.6792 34.9877 35.8322 34.9914H35.9029H38.9168C39.0697 34.9917 39.2166 34.9312 39.3257 34.823C39.4349 34.7149 39.4975 34.5677 39.4999 34.4133V22.1072C39.4714 20.0721 39.4324 17.9806 38.2482 16.241C36.335 13.4253 33.3001 11.8222 29.9091 11.7487C27.79 11.7038 25.6508 12.2457 23.9606 13.5788C22.7986 14.5015 20.8612 16.1579 21.9535 17.7566C22.1648 18.0649 22.9697 18.755 23.5381 18.9245C23.6573 18.9606 23.7839 18.9636 23.9046 18.9331C24.1223 18.8722 24.3441 18.645 24.5004 18.5001C25.7966 17.298 26.6353 16.2154 29.0428 15.8997C29.9672 15.7792 30.9591 15.9882 31.8359 16.3103C33.111 16.7775 34.6881 18.1747 35.1646 19.8034C35.2734 20.1621 35.3471 20.5308 35.3843 20.9041C35.5227 22.3375 35.4477 23.7774 35.4371 25.2141C35.4287 26.2914 35.1899 27.1339 34.7293 28.1205C34.3828 28.8671 33.7384 29.507 33.0983 30.0062C32.3947 30.5597 31.3024 31.029 30.4309 31.1272C29.5772 31.22 28.7139 31.1517 27.885 30.9255C27.1604 30.7261 26.536 30.3219 25.9276 29.8899C25.562 29.6297 25.2357 29.619 24.9061 30.019C24.6114 30.3774 24.1328 30.8509 23.7916 31.3202C23.6612 31.4857 23.5646 31.6757 23.5074 31.8791C23.4164 32.2105 23.4212 32.5613 23.5211 32.8902C23.6211 33.219 23.812 33.5121 24.0715 33.7349C24.421 34.0178 24.8026 34.2577 25.2082 34.4496C25.891 34.778 26.6149 35.0109 27.36 35.1418C28.0158 35.2628 28.6817 35.3181 29.3481 35.3071C30.7996 35.2858 31.9891 35.1226 33.486 34.4527Z" fill="white"/>
<path d="M19.7771 20.709C19.8827 21.5274 19.913 22.3542 19.8676 23.1783C19.8291 23.7368 19.8322 24.3655 19.1856 24.9059C18.8103 25.2192 18.4038 25.3119 17.9203 25.3098C13.5925 25.2938 9.33629 25.33 5.00943 25.3098C4.9206 25.308 4.83258 25.3274 4.75229 25.3664C4.67201 25.4054 4.60167 25.463 4.5468 25.5346C4.46639 25.6381 4.42146 25.7658 4.41893 25.8981C4.49669 26.9224 4.84216 27.9065 5.41903 28.7468C6.97221 31.0147 10.0671 31.4942 12.5923 31.2118C16.8766 30.7311 19.4662 26.5673 22.424 23.903C24.4544 22.0742 27.4141 21.2301 30.0797 21.1726C30.7134 21.1624 31.3471 21.1979 31.9759 21.2792C32.3708 21.3191 32.7391 21.5011 33.0155 21.7929C33.4075 22.1659 33.5447 22.6593 33.5437 23.2849C33.5437 23.6184 33.5437 24.3613 33.5208 24.7237C33.5103 24.8621 33.4524 24.9923 33.3572 25.0912C33.2621 25.1901 33.1359 25.2513 33.001 25.264C33.001 25.264 32.8762 25.264 32.7536 25.264C31.2555 25.264 29.4122 25.2863 27.9599 25.7062C26.3392 26.1741 25.1997 26.7719 24.079 28.0168C22.7816 29.4533 20.9852 31.4271 19.5391 32.5173C16.7196 34.6268 13.2395 35.5946 9.76669 35.2349C7.54608 34.9973 5.20695 34.1948 3.52902 32.6867C1.24188 30.6289 0.0983002 27.8068 0.0120125 24.1513C-0.0451662 21.6639 0.0629537 19.1424 1.20445 16.9662C3.05184 13.4492 6.92231 11.338 10.7772 11.8123C12.9394 12.0938 14.9591 13.0698 16.5471 14.6003C18.2052 16.202 19.4164 18.39 19.7771 20.709ZM15.1363 21.1972C15.4658 21.1972 15.8266 20.8881 15.6707 20.3701C15.6613 20.3413 15.653 20.3125 15.6436 20.2848C14.6955 17.2539 12.3294 15.8887 10.1462 15.8887C8.40794 15.8887 5.50844 16.7733 4.50001 20.271C4.4865 20.3179 4.47298 20.3669 4.46051 20.4149C4.38462 20.6866 4.46051 21.1673 5.00735 21.1972H15.1363Z" fill="white"/>
<path fill-rule="evenodd" clip-rule="evenodd" d="M31.9652 3.12312C32.1021 3.05363 32.3149 2.98028 32.4403 2.95326C32.5772 2.92237 32.8432 2.91079 33.1055 2.92237C33.3449 2.93009 33.6528 2.9687 33.7896 3.00344C33.9264 3.03819 34.1279 3.10767 34.4358 3.25051V3.71376C34.4358 3.96855 34.4244 4.17701 34.4054 4.17701C34.3906 4.17701 34.2497 4.1185 34.088 4.05131L34.0879 4.05125L34.0747 4.04576C33.9074 3.97241 33.6376 3.88362 33.4742 3.85274C33.3145 3.81799 33.1017 3.79097 32.9991 3.79097C32.9002 3.79097 32.7292 3.81799 32.619 3.84888C32.4897 3.88748 32.3871 3.94539 32.3263 4.0226C32.2655 4.09595 32.2313 4.18473 32.2313 4.27352C32.2313 4.34687 32.2541 4.45497 32.2845 4.51287C32.3111 4.57464 32.4213 4.66729 32.5202 4.7252C32.6228 4.77924 32.9534 4.9298 33.2575 5.05333C33.5616 5.17687 33.9112 5.34672 34.0329 5.43165C34.1545 5.51658 34.3027 5.64784 34.3635 5.72119C34.4206 5.79453 34.5118 5.95281 34.565 6.06863C34.622 6.19602 34.6714 6.38904 34.6866 6.55118C34.7018 6.71718 34.6942 6.9102 34.6638 7.05304C34.6372 7.18043 34.584 7.35029 34.546 7.4275C34.5042 7.50857 34.4016 7.65526 34.3141 7.75177C34.2229 7.84828 34.0671 7.97954 33.9607 8.03745C33.858 8.09921 33.6604 8.17642 33.5236 8.21116C33.3677 8.25363 33.1283 8.27679 32.8774 8.27679C32.6266 8.27293 32.3529 8.24591 32.1363 8.19958C31.9462 8.15712 31.6536 8.06833 31.1671 7.88303V6.87932L31.4901 7.03373C31.6688 7.11866 31.9614 7.23062 32.1439 7.28466C32.3757 7.35415 32.581 7.38503 32.8014 7.38889C33.0713 7.39275 33.1549 7.38117 33.3107 7.3001C33.4171 7.24992 33.535 7.15727 33.5768 7.09936C33.63 7.02601 33.6566 6.93336 33.6566 6.80983C33.6528 6.69015 33.6262 6.58592 33.5768 6.51257C33.5312 6.44695 33.4399 6.35816 33.3677 6.31183C33.2955 6.26551 32.9915 6.12267 32.6874 5.99914C32.3833 5.87174 32.0679 5.73663 31.9842 5.69416C31.9006 5.64784 31.741 5.52817 31.6308 5.42779C31.5091 5.31584 31.3837 5.14984 31.3267 5.02631C31.2355 4.83715 31.2241 4.76766 31.2241 4.40864C31.2241 4.05348 31.2355 3.97627 31.3229 3.79097C31.3761 3.67516 31.4863 3.50144 31.57 3.41265C31.6536 3.31228 31.8208 3.1926 31.9652 3.12312ZM1.72987 5.48956C2.19737 4.2272 2.59645 3.14628 2.61926 3.08451L2.66106 2.98028H3.7823L4.7287 5.53589C5.24941 6.94494 5.6827 8.11851 5.6865 8.14554C5.6979 8.18028 5.58008 8.19186 4.67549 8.19186L4.61848 8.02972C4.58807 7.93707 4.49685 7.68229 4.2688 7.05304L2.14796 7.02987L1.72987 8.19186H0.722656L0.802473 7.99112C0.844282 7.87917 1.26237 6.75192 1.72987 5.48956ZM6.53788 5.58607V8.19186H7.52609C7.52609 5.52817 7.53749 4.94138 7.5641 4.9298C7.5831 4.91822 8.11141 5.64398 8.73474 6.5396L9.87118 8.17256L10.8708 8.19186V2.98028H9.88259C9.88259 5.64398 9.86738 6.2269 9.84458 6.24234C9.82177 6.25007 9.77236 6.21146 9.73435 6.15355C9.69635 6.09565 9.18324 5.35831 8.59411 4.51287L7.52609 2.98028H6.53788V5.58607ZM11.9046 3.50144C11.9008 3.26981 11.9046 3.05749 11.916 3.03047C11.9274 2.988 12.2847 2.98028 15.7548 2.99958L15.7738 3.94539H14.3295V8.19186H13.3413V3.94539L11.916 3.92609L11.9046 3.50144ZM17.8605 3.08451C17.8377 3.14242 17.4196 4.2658 16.9331 5.58607C16.6478 6.35204 16.3882 7.05265 16.2166 7.51605L16.2164 7.51651L16.2162 7.51698C16.093 7.84945 16.0152 8.05958 16.0057 8.08377L15.9639 8.19186H16.9711L17.3892 7.02987L19.51 7.05304L19.9053 8.17256C20.8251 8.188 20.9391 8.18028 20.9277 8.14168C20.9226 8.12344 20.7235 7.58275 20.4356 6.80104C20.297 6.42471 20.1379 5.99253 19.9699 5.53589L19.0235 2.97642L17.8985 2.98028L17.8605 3.08451ZM21.7791 8.188L21.7829 5.57835L21.7867 2.9687L22.9725 2.988C23.9113 3.00344 24.2078 3.01888 24.4016 3.06907C24.5385 3.10767 24.7513 3.1926 24.8729 3.25823C24.9984 3.32772 25.158 3.45125 25.234 3.53618C25.3062 3.62111 25.4127 3.78711 25.4659 3.90292C25.5533 4.09208 25.5609 4.16543 25.5609 4.5592C25.5609 4.9105 25.5457 5.04561 25.4849 5.20775C25.4431 5.32356 25.348 5.49728 25.2758 5.59379C25.2036 5.69416 25.063 5.82928 24.968 5.89105C24.8729 5.95667 24.7627 6.02616 24.7247 6.04546C24.6639 6.08021 24.7057 6.18058 25.196 7.10708C25.4887 7.6707 25.7319 8.14168 25.7319 8.16098C25.7319 8.17642 25.4887 8.18414 24.6525 8.1687L23.6453 6.23848H22.7863L22.7673 8.188H21.7791ZM26.7809 3.00344C26.7619 3.01502 26.7505 4.1886 26.7543 5.60923L26.7581 8.188H30.1028V7.3001L27.7654 7.2808V6.00686L29.9318 5.96825V5.15756L27.7463 5.13826V3.90292L30.0838 3.88362V2.99572C27.5487 2.98028 26.7961 2.988 26.7809 3.00344ZM22.7673 5.33452L22.7711 4.61648L22.7749 3.89844L23.4058 3.91388C23.9645 3.92546 24.0596 3.93704 24.2116 4.01039C24.3294 4.0683 24.4054 4.13778 24.4549 4.24202C24.5043 4.33853 24.5309 4.46978 24.5309 4.62034C24.5309 4.77862 24.5043 4.89443 24.4549 4.98708C24.4054 5.07587 24.3142 5.15694 24.1926 5.2187C24.0178 5.30749 23.9569 5.31522 22.7673 5.33452ZM2.79789 5.1994L2.88084 4.96756C3.02758 4.55733 3.14729 4.22266 3.16656 4.18025C3.18937 4.13006 3.21217 4.09532 3.21978 4.10304C3.22256 4.10869 3.31089 4.3564 3.57572 5.09907L3.57573 5.09909L3.57592 5.09961L3.57598 5.09979L3.94193 6.12591L3.21597 6.13749C2.81689 6.14135 2.48622 6.14135 2.47862 6.13749C2.47482 6.12977 2.61925 5.70898 2.79789 5.1994ZM18.4002 4.19955C18.3736 4.26132 18.2063 4.72071 18.0315 5.2187C17.8567 5.7167 17.716 6.12977 17.7198 6.13749C17.7274 6.14135 18.0581 6.14135 18.4534 6.13749L19.1793 6.12591C18.632 4.57015 18.4648 4.11076 18.461 4.10304C18.4534 4.09532 18.4268 4.13778 18.4002 4.19955Z" fill="white"/>
</g>
<defs>
<clipPath id="clip0_4076_8069">
<rect width="79" height="42.6349" fill="white"/>
</clipPath>
</defs>
</svg>
